<svg width="400" height="320" viewBox="0 0 400 320" fill="none" xmlns="http://www.w3.org/2000/svg">\n<defs>\n
        <filter id="glow" x="-20%" y="-20%" width="140%" height="140%">
            <feGaussianBlur stdDeviation="4" result="blur" />
            <feComposite in="SourceGraphic" in2="blur" operator="over" />
        </filter>
        <radialGradient id="dotGlow" cx="50%" cy="50%" r="50%">
            <stop offset="0%" stop-color="#FFFFFF" stop-opacity="1" />
            <stop offset="30%" stop-color="#00FF66" stop-opacity="0.8" />
            <stop offset="100%" stop-color="#00FF66" stop-opacity="0" />
        </radialGradient>
    \n</defs>\n<g transform="translate(200, 160)">\n<ellipse rx="45" ry="110" transform="rotate(0)" stroke="#00FF66" stroke-width="1.5" stroke-opacity="0.8" fill="#00FF66" fill-opacity="0.05" filter="url(#glow)"/>\n<ellipse rx="45" ry="110" transform="rotate(30)" stroke="#00FF66" stroke-width="1.5" stroke-opacity="0.8" fill="#00FF66" fill-opacity="0.05" filter="url(#glow)"/>\n<ellipse rx="45" ry="110" transform="rotate(60)" stroke="#00FF66" stroke-width="1.5" stroke-opacity="0.8" fill="#00FF66" fill-opacity="0.05" filter="url(#glow)"/>\n<ellipse rx="45" ry="110" transform="rotate(90)" stroke="#00FF66" stroke-width="1.5" stroke-opacity="0.8" fill="#00FF66" fill-opacity="0.05" filter="url(#glow)"/>\n<ellipse rx="45" ry="110" transform="rotate(120)" stroke="#00FF66" stroke-width="1.5" stroke-opacity="0.8" fill="#00FF66" fill-opacity="0.05" filter="url(#glow)"/>\n<ellipse rx="45" ry="110" transform="rotate(150)" stroke="#00FF66" stroke-width="1.5" stroke-opacity="0.8" fill="#00FF66" fill-opacity="0.05" filter="url(#glow)"/>\n<ellipse rx="45" ry="110" transform="rotate(180)" stroke="#00FF66" stroke-width="1.5" stroke-opacity="0.8" fill="#00FF66" fill-opacity="0.05" filter="url(#glow)"/>\n<ellipse rx="45" ry="110" transform="rotate(210)" stroke="#00FF66" stroke-width="1.5" stroke-opacity="0.8" fill="#00FF66" fill-opacity="0.05" filter="url(#glow)"/>\n<ellipse rx="45" ry="110" transform="rotate(240)" stroke="#00FF66" stroke-width="1.5" stroke-opacity="0.8" fill="#00FF66" fill-opacity="0.05" filter="url(#glow)"/>\n<ellipse rx="45" ry="110" transform="rotate(270)" stroke="#00FF66" stroke-width="1.5" stroke-opacity="0.8" fill="#00FF66" fill-opacity="0.05" filter="url(#glow)"/>\n<ellipse rx="45" ry="110" transform="rotate(300)" stroke="#00FF66" stroke-width="1.5" stroke-opacity="0.8" fill="#00FF66" fill-opacity="0.05" filter="url(#glow)"/>\n<ellipse rx="45" ry="110" transform="rotate(330)" stroke="#00FF66" stroke-width="1.5" stroke-opacity="0.8" fill="#00FF66" fill-opacity="0.05" filter="url(#glow)"/>\n<circle cx="105.0" cy="0.0" r="6" fill="url(#dotGlow)"/>\n<circle cx="105.0" cy="0.0" r="1.5" fill="#FFFFFF"/>\n<circle cx="40.0" cy="0.0" r="4" fill="url(#dotGlow)"/>\n<circle cx="40.0" cy="0.0" r="1" fill="#FFFFFF"/>\n<circle cx="90.93266739736606" cy="52.49999999999999" r="6" fill="url(#dotGlow)"/>\n<circle cx="90.93266739736606" cy="52.49999999999999" r="1.5" fill="#FFFFFF"/>\n<circle cx="34.64101615137755" cy="19.999999999999996" r="4" fill="url(#dotGlow)"/>\n<circle cx="34.64101615137755" cy="19.999999999999996" r="1" fill="#FFFFFF"/>\n<circle cx="52.500000000000014" cy="90.93266739736605" r="6" fill="url(#dotGlow)"/>\n<circle cx="52.500000000000014" cy="90.93266739736605" r="1.5" fill="#FFFFFF"/>\n<circle cx="20.000000000000004" cy="34.64101615137754" r="4" fill="url(#dotGlow)"/>\n<circle cx="20.000000000000004" cy="34.64101615137754" r="1" fill="#FFFFFF"/>\n<circle cx="6.429395695523604e-15" cy="105.0" r="6" fill="url(#dotGlow)"/>\n<circle cx="6.429395695523604e-15" cy="105.0" r="1.5" fill="#FFFFFF"/>\n<circle cx="2.4492935982947065e-15" cy="40.0" r="4" fill="url(#dotGlow)"/>\n<circle cx="2.4492935982947065e-15" cy="40.0" r="1" fill="#FFFFFF"/>\n<circle cx="-52.49999999999998" cy="90.93266739736606" r="6" fill="url(#dotGlow)"/>\n<circle cx="-52.49999999999998" cy="90.93266739736606" r="1.5" fill="#FFFFFF"/>\n<circle cx="-19.999999999999993" cy="34.64101615137755" r="4" fill="url(#dotGlow)"/>\n<circle cx="-19.999999999999993" cy="34.64101615137755" r="1" fill="#FFFFFF"/>\n<circle cx="-90.93266739736606" cy="52.49999999999999" r="6" fill="url(#dotGlow)"/>\n<circle cx="-90.93266739736606" cy="52.49999999999999" r="1.5" fill="#FFFFFF"/>\n<circle cx="-34.64101615137755" cy="19.999999999999996" r="4" fill="url(#dotGlow)"/>\n<circle cx="-34.64101615137755" cy="19.999999999999996" r="1" fill="#FFFFFF"/>\n<circle cx="-105.0" cy="1.2858791391047208e-14" r="6" fill="url(#dotGlow)"/>\n<circle cx="-105.0" cy="1.2858791391047208e-14" r="1.5" fill="#FFFFFF"/>\n<circle cx="-40.0" cy="4.898587196589413e-15" r="4" fill="url(#dotGlow)"/>\n<circle cx="-40.0" cy="4.898587196589413e-15" r="1" fill="#FFFFFF"/>\n<circle cx="-90.93266739736605" cy="-52.500000000000014" r="6" fill="url(#dotGlow)"/>\n<circle cx="-90.93266739736605" cy="-52.500000000000014" r="1.5" fill="#FFFFFF"/>\n<circle cx="-34.64101615137754" cy="-20.000000000000004" r="4" fill="url(#dotGlow)"/>\n<circle cx="-34.64101615137754" cy="-20.000000000000004" r="1" fill="#FFFFFF"/>\n<circle cx="-52.50000000000005" cy="-90.93266739736605" r="6" fill="url(#dotGlow)"/>\n<circle cx="-52.50000000000005" cy="-90.93266739736605" r="1.5" fill="#FFFFFF"/>\n<circle cx="-20.000000000000018" cy="-34.64101615137754" r="4" fill="url(#dotGlow)"/>\n<circle cx="-20.000000000000018" cy="-34.64101615137754" r="1" fill="#FFFFFF"/>\n<circle cx="-1.928818708657081e-14" cy="-105.0" r="6" fill="url(#dotGlow)"/>\n<circle cx="-1.928818708657081e-14" cy="-105.0" r="1.5" fill="#FFFFFF"/>\n<circle cx="-7.347880794884118e-15" cy="-40.0" r="4" fill="url(#dotGlow)"/>\n<circle cx="-7.347880794884118e-15" cy="-40.0" r="1" fill="#FFFFFF"/>\n<circle cx="52.500000000000014" cy="-90.93266739736605" r="6" fill="url(#dotGlow)"/>\n<circle cx="52.500000000000014" cy="-90.93266739736605" r="1.5" fill="#FFFFFF"/>\n<circle cx="20.000000000000004" cy="-34.64101615137754" r="4" fill="url(#dotGlow)"/>\n<circle cx="20.000000000000004" cy="-34.64101615137754" r="1" fill="#FFFFFF"/>\n<circle cx="90.93266739736603" cy="-52.50000000000005" r="6" fill="url(#dotGlow)"/>\n<circle cx="90.93266739736603" cy="-52.50000000000005" r="1.5" fill="#FFFFFF"/>\n<circle cx="34.641016151377535" cy="-20.000000000000018" r="4" fill="url(#dotGlow)"/>\n<circle cx="34.641016151377535" cy="-20.000000000000018" r="1" fill="#FFFFFF"/>\n</g>\n</svg>