<svg width="56" height="56" viewBox="0 0 56 56" fill="none" xmlns="http://www.w3.org/2000/svg">
<g opacity="0.5">
<path d="M25.7831 13H28.1885C28.5229 13.1166 29.0171 13.1129 29.3769 13.1777C30.0175 13.2929 30.6464 13.4317 31.2703 13.6184C35.1998 14.7998 38.48 17.5282 40.3573 21.1769C41.0088 22.4475 41.4735 23.8056 41.7372 25.2089C41.7873 25.4835 41.9511 26.7574 42 26.8944V29.1362L41.9915 29.163C41.9007 29.4589 41.8456 30.1921 41.787 30.5294C41.6868 31.1051 41.5667 31.6253 41.4026 32.1882C40.2661 36.0484 37.6364 39.2956 34.0968 41.2099C32.8017 41.9097 31.4123 42.4187 29.9716 42.7211C29.6401 42.7876 28.4178 42.92 28.2454 43H25.8048C25.6334 42.9341 24.4444 42.7826 24.1651 42.7334C23.3424 42.5808 22.5352 42.354 21.7532 42.0564C17.4475 40.4352 14.116 36.9392 12.704 32.5604C12.5328 32.0281 12.3929 31.4862 12.2853 30.9374C12.2315 30.6497 12.0876 29.4189 12 29.2496V26.7511C12.0829 26.578 12.2393 25.2996 12.309 24.961C12.5607 23.7207 12.9739 22.5186 13.5379 21.3856C15.3807 17.6289 18.7094 14.8131 22.7196 13.6186C23.3516 13.4322 23.9944 13.2847 24.6444 13.1771C24.9406 13.1296 25.5183 13.0966 25.7831 13ZM27.3215 33.0687C28.1892 33.0508 28.8293 32.8977 29.4571 32.2458C29.7815 31.9137 30.0086 31.499 30.1135 31.0468C30.2193 30.5992 30.202 30.1406 30.2004 29.6844C30.1957 28.3557 30.2015 27.0251 30.1983 25.6966C30.1965 24.9346 29.9503 24.1999 29.3873 23.6698C28.5463 22.8658 27.5991 22.925 26.5124 22.9457C25.6238 22.9644 24.9617 23.0657 24.3068 23.7483C23.9931 24.076 23.7725 24.4815 23.668 24.923C23.5617 25.3693 23.577 25.8524 23.5772 26.3097C23.5779 27.6436 23.579 28.9739 23.5797 30.3081C23.5802 31.0885 23.8326 31.8123 24.4115 32.3533C25.2875 33.1709 26.2191 33.0752 27.3215 33.0687ZM19.8139 33.035C20.7287 32.8727 21.4446 32.5776 22 31.7947C22.446 31.1659 22.5585 30.3818 22.4262 29.6415C22.1838 28.4259 21.3009 27.8689 20.1897 27.4142C19.2904 27.0463 16.969 26.639 17.9485 25.1146C18.3255 24.5279 19.7059 24.6258 20.2223 25.0093C20.8237 25.4558 20.4975 26.1561 21.1134 26.5451C22.0496 26.8803 22.535 26.1458 22.3729 25.3265C22.0185 23.5356 20.2765 22.8151 18.6216 22.9729C17.728 23.1351 16.9583 23.4213 16.454 24.1855C15.6169 25.4536 15.8844 27.2296 17.209 28.0485C17.5537 28.3023 17.9006 28.4161 18.2856 28.593C19.0037 28.9228 20.5023 29.1327 20.7123 30.0119C20.853 30.6009 20.3696 31.2044 19.7682 31.2689C19.2447 31.3251 18.7064 31.3163 18.2513 31.0015C17.5273 30.5178 18.0496 29.2319 16.7852 29.3916C16.58 29.4175 16.3185 29.5362 16.2214 29.7147C15.7093 30.6563 16.4623 31.9348 17.2543 32.4386C18.0957 32.9738 18.8868 33.1091 19.8139 33.035ZM35.3619 33.0334C36.9228 32.7555 37.9993 31.8682 38.0153 30.1812C38.0291 28.7122 36.9882 27.875 35.7188 27.4094C34.7825 27.0026 32.5905 26.6911 33.4559 25.1726C33.8781 24.432 35.8161 24.587 36.0916 25.4142C36.278 25.9739 36.3037 26.7167 37.1535 26.6215C37.808 26.5481 38.0379 25.9451 37.9179 25.36C37.6088 23.5602 35.8051 22.8049 34.1461 22.9749C33.2615 23.1374 32.4848 23.4345 31.9897 24.1905C31.16 25.4576 31.4235 27.2373 32.7505 28.0507C33.0984 28.3079 33.4418 28.4127 33.8293 28.5937C34.5333 28.9226 36.0379 29.129 36.2454 29.999C36.3887 30.6 35.92 31.1905 35.3162 31.266C34.7968 31.331 34.233 31.3139 33.7833 30.9997C33.0632 30.5146 33.5887 29.2348 32.327 29.3939C32.1234 29.4195 31.8691 29.5244 31.7676 29.7013C31.2417 30.6182 31.985 31.9062 32.7541 32.4112C33.6015 32.9676 34.4143 33.1131 35.3619 33.0334Z" fill="#FF4D4D"/>
<path d="M26.0892 24.7024C26.5938 24.6565 27.6202 24.6105 28.0658 24.8572C28.5165 25.1067 28.4369 25.8075 28.4373 26.26L28.4379 27.7356L28.4374 29.4958C28.4369 30.2598 28.6111 31.1324 27.6329 31.307C27.0707 31.3485 25.4469 31.4974 25.3731 30.6822C25.3134 30.0221 25.3399 29.2192 25.3394 28.5452L25.3385 26.6762C25.3383 25.9085 25.1355 24.9011 26.0892 24.7024Z" fill="#FF4D4D"/>
</g>
</svg>
