<svg width="24" height="25" viewBox="0 0 24 25" fill="none" xmlns="http://www.w3.org/2000/svg">
<path fill-rule="evenodd" clip-rule="evenodd" d="M12.0371 9.21289C12.4513 9.21289 12.7871 9.54867 12.7871 9.96289V17.1113C12.7871 17.5256 12.4513 17.8613 12.0371 17.8613C11.6229 17.8613 11.2871 17.5256 11.2871 17.1113V9.96289C11.2871 9.54867 11.6229 9.21289 12.0371 9.21289Z" fill="black"/>
<path fill-rule="evenodd" clip-rule="evenodd" d="M7.70898 13.5371C7.70898 13.1229 8.04477 12.7871 8.45898 12.7871H15.6148C16.029 12.7871 16.3648 13.1229 16.3648 13.5371C16.3648 13.9513 16.029 14.2871 15.6148 14.2871H8.45898C8.04477 14.2871 7.70898 13.9513 7.70898 13.5371Z" fill="black"/>
<path fill-rule="evenodd" clip-rule="evenodd" d="M4.96075 6.46124C3.66171 7.76028 3.05029 9.92817 3.05029 13.5376C3.05029 17.1471 3.66171 19.315 4.96075 20.614C6.2598 21.9131 8.42768 22.5245 12.0371 22.5245C15.6465 22.5245 17.8144 21.9131 19.1135 20.614C20.4125 19.315 21.0239 17.1471 21.0239 13.5376C21.0239 9.92817 20.4125 7.76028 19.1135 6.46124C17.8144 5.16219 15.6465 4.55078 12.0371 4.55078C8.42768 4.55078 6.2598 5.16219 4.96075 6.46124ZM3.90009 5.40058C5.64394 3.65673 8.34448 3.05078 12.0371 3.05078C15.7297 3.05078 18.4303 3.65673 20.1741 5.40058C21.918 7.14443 22.5239 9.84497 22.5239 13.5376C22.5239 17.2303 21.918 19.9308 20.1741 21.6747C18.4303 23.4185 15.7297 24.0245 12.0371 24.0245C8.34448 24.0245 5.64394 23.4185 3.90009 21.6747C2.15624 19.9308 1.55029 17.2303 1.55029 13.5376C1.55029 9.84497 2.15624 7.14443 3.90009 5.40058Z" fill="black"/>
</svg>
