<svg width="24" height="24" viewBox="0 0 24 24" fill="none" xmlns="http://www.w3.org/2000/svg">
<path fill-rule="evenodd" clip-rule="evenodd" d="M15.04 4.0515C16.05 4.4535 16.359 5.8535 16.772 6.3035C17.185 6.7535 17.776 6.9065 18.103 6.9065C19.841 6.9065 21.25 8.3155 21.25 10.0525V15.8475C21.25 18.1775 19.36 20.0675 17.03 20.0675H6.97C4.639 20.0675 2.75 18.1775 2.75 15.8475V10.0525C2.75 8.3155 4.159 6.9065 5.897 6.9065C6.223 6.9065 6.814 6.7535 7.228 6.3035C7.641 5.8535 7.949 4.4535 8.959 4.0515C9.97 3.6495 14.03 3.6495 15.04 4.0515Z" stroke="black" stroke-width="1.5" stroke-linecap="round" stroke-linejoin="round"/>
<path d="M17.4951 9.5H17.5041" stroke="black" stroke-width="1.5" stroke-linecap="round" stroke-linejoin="round"/>
<path fill-rule="evenodd" clip-rule="evenodd" d="M15.1788 13.1282C15.1788 11.3722 13.7558 9.94922 11.9998 9.94922C10.2438 9.94922 8.8208 11.3722 8.8208 13.1282C8.8208 14.8842 10.2438 16.3072 11.9998 16.3072C13.7558 16.3072 15.1788 14.8842 15.1788 13.1282Z" stroke="black" stroke-width="1.5" stroke-linecap="round" stroke-linejoin="round"/>
</svg>
