<svg width="32" height="27" viewBox="0 0 32 27" fill="none" xmlns="http://www.w3.org/2000/svg">
<path d="M25.3333 0H6.66667C2.98533 0 0 2.98533 0 6.66667V20C0 23.6813 2.98533 26.6667 6.66667 26.6667H25.3333C29.0147 26.6667 32 23.6813 32 20V6.66667C32 2.98533 29.0147 0 25.3333 0ZM8.66667 6.66667C10.508 6.66667 12 8.15867 12 10C12 11.8413 10.508 13.3333 8.66667 13.3333C6.82533 13.3333 5.33333 11.8413 5.33333 10C5.33333 8.15867 6.82533 6.66667 8.66667 6.66667ZM12.2707 19.972C12.18 19.9907 12.0893 20 11.9987 20C11.38 20 10.8253 19.5667 10.6947 18.9373C10.5013 18.008 9.64933 17.3333 8.66667 17.3333C7.684 17.3333 6.832 18.008 6.63867 18.9373C6.48933 19.6573 5.78267 20.116 5.06267 19.972C4.34133 19.8227 3.87733 19.116 4.028 18.3947C4.47467 16.2347 6.42667 14.6653 8.66667 14.6653C10.9067 14.6653 12.8587 16.2347 13.3053 18.3947C13.4547 19.116 12.992 19.8213 12.2707 19.972ZM24 20H18.6667C17.9307 20 17.3333 19.4027 17.3333 18.6667C17.3333 17.9307 17.9307 17.3333 18.6667 17.3333H24C24.736 17.3333 25.3333 17.9307 25.3333 18.6667C25.3333 19.4027 24.736 20 24 20ZM26.6667 14.6667H18.6667C17.9307 14.6667 17.3333 14.0693 17.3333 13.3333C17.3333 12.5973 17.9307 12 18.6667 12H26.6667C27.4027 12 28 12.5973 28 13.3333C28 14.0693 27.4027 14.6667 26.6667 14.6667ZM26.6667 9.33333H18.6667C17.9307 9.33333 17.3333 8.736 17.3333 8C17.3333 7.264 17.9307 6.66667 18.6667 6.66667H26.6667C27.4027 6.66667 28 7.264 28 8C28 8.736 27.4027 9.33333 26.6667 9.33333Z" fill="black"/>
</svg>
