<svg width="19" height="20" viewBox="0 0 19 20" fill="none" xmlns="http://www.w3.org/2000/svg">
<g clip-path="url(#clip0_130_57915)">
<path d="M15.1098 7.46912C15.1398 7.03912 15.5098 6.49912 15.7998 6.47912C16.0898 6.45912 16.6598 6.93912 16.6398 7.22912L15.9698 15.9191C15.8298 17.7591 14.0498 19.3691 12.2598 19.3691H5.72983C3.94983 19.3691 2.16983 17.7691 2.02983 15.9091L1.36983 7.31912C1.34983 7.02912 1.76983 6.55912 1.99983 6.49912C2.26983 6.42912 2.83983 6.85912 2.85983 7.15912L3.49983 15.6491C3.60983 17.0791 4.92983 17.9191 6.23983 17.9091L11.9998 17.8891C13.2298 17.8891 14.4098 16.9291 14.4998 15.6691L15.0998 7.46912H15.1098Z" fill="black"/>
<path d="M11.22 14.0896C11.22 14.3796 10.61 14.8096 10.37 14.7496C10.13 14.6896 9.70996 14.2096 9.70996 13.9696V9.47959C9.70996 9.20959 10.15 8.72959 10.38 8.70959C10.66 8.68959 11.21 9.16959 11.21 9.48959V14.0996L11.22 14.0896Z" fill="black"/>
<path d="M7.85961 13.8383C7.85961 14.1783 7.39961 14.7383 7.14961 14.7483C6.84961 14.7683 6.34961 14.2583 6.34961 13.9283V9.45835C6.34961 9.16835 6.89961 8.67835 7.18961 8.70835C7.47961 8.73835 7.86961 9.33835 7.86961 9.67835V13.8383H7.85961Z" fill="black"/>
<path d="M17.1198 3.39C17.4398 3.39 18.0998 3.88 17.9998 4.1C17.8998 4.32 17.6298 4.67 17.3898 4.89H0.829805C0.529805 4.73 0.199805 4.51 0.0298052 4.34C-0.140195 4.17 0.339805 3.42 0.579805 3.42L4.25981 3.39C4.46981 3.39 4.64981 3.24 4.68981 3.04L4.97981 1.7C5.19981 0.71 5.96981 0 6.99981 0H11.0098C12.0298 0 12.8498 0.7 13.0298 1.66L13.2898 3.02C13.3298 3.23 13.5098 3.38 13.7298 3.38H17.1098L17.1198 3.39ZM11.7198 2.9L11.4098 1.76C11.3598 1.59 11.2098 1.48 11.0398 1.48L6.89981 1.51C6.71981 1.51 6.56981 1.64 6.52981 1.81L6.28981 2.94C6.23981 3.18 6.41981 3.4 6.65981 3.4L11.3398 3.38C11.5898 3.38 11.7698 3.14 11.6998 2.9H11.7198Z" fill="black"/>
</g>
<defs>
<clipPath id="clip0_130_57915">
<rect width="18.01" height="19.37" fill="white"/>
</clipPath>
</defs>
</svg>
