<svg width="24" height="24" viewBox="0 0 24 24" fill="none" xmlns="http://www.w3.org/2000/svg">
<path d="M11.4925 2.78906H7.75349C4.67849 2.78906 2.75049 4.96606 2.75049 8.04806V16.3621C2.75049 19.4441 4.66949 21.6211 7.75349 21.6211H16.5775C19.6625 21.6211 21.5815 19.4441 21.5815 16.3621V12.3341" stroke="#141414" stroke-width="1.5" stroke-linecap="round" stroke-linejoin="round"/>
<path fill-rule="evenodd" clip-rule="evenodd" d="M8.82812 10.9205L16.3011 3.4475C17.2321 2.5175 18.7411 2.5175 19.6721 3.4475L20.8891 4.6645C21.8201 5.5955 21.8201 7.1055 20.8891 8.0355L13.3801 15.5445C12.9731 15.9515 12.4211 16.1805 11.8451 16.1805H8.09912L8.19312 12.4005C8.20712 11.8445 8.43412 11.3145 8.82812 10.9205Z" stroke="#141414" stroke-width="1.5" stroke-linecap="round" stroke-linejoin="round"/>
<path d="M15.1655 4.60156L19.7315 9.16756" stroke="#141414" stroke-width="1.5" stroke-linecap="round" stroke-linejoin="round"/>
</svg>
