<svg width="18" height="21" viewBox="0 0 18 21" fill="none" xmlns="http://www.w3.org/2000/svg">
<g clip-path="url(#clip0_130_57890)">
<path d="M1.37544 5.79043V14.2882C1.36641 15.8957 2.54044 17.1961 4.17505 17.1961H11.9327C13.5854 17.1961 14.7504 15.8957 14.7413 14.2882L14.7233 5.51951C14.7233 3.96625 13.4138 2.87354 12.0682 2.87354L12.0049 3.81273C11.9869 4.02043 11.5444 4.30941 11.3457 4.30941C11.1109 4.30941 10.6954 3.88497 10.6954 3.61405V0.733286C10.6954 0.480429 11.0025 0.0830819 11.2102 0.0288983C11.4179 -0.0252854 11.9507 0.164357 11.9778 0.372062L12.1043 1.41058C14.2807 1.52798 16.0779 3.27089 16.087 5.59176L16.105 14.3605C16.105 16.7175 14.344 18.641 11.9778 18.641H4.13893C1.78183 18.632 0.0117564 16.7084 0.0117564 14.3605V5.93492C0.00272542 3.65921 1.61928 1.60023 2.54947 2.2414C2.77524 2.39492 2.82943 3.09028 2.60366 3.28895C1.89021 3.93012 1.37544 4.70676 1.37544 5.79043Z" fill="black"/>
<path d="M10.4822 13.4511L5.41761 8.38647C5.14977 8.11863 5.10107 7.68036 5.32628 7.3821C5.48454 7.17514 6.06282 7.09602 6.28196 7.31516L11.45 12.4832C11.6996 12.7328 11.7787 13.2259 11.584 13.445C11.2857 13.792 10.8048 13.7737 10.4883 13.4571L10.4822 13.4511Z" fill="black"/>
<path d="M6.38499 13.4511L11.4496 8.38647C11.7174 8.11863 11.7661 7.68036 11.5409 7.3821C11.3826 7.17514 10.8044 7.09602 10.5852 7.31516L5.41716 12.4832C5.16759 12.7328 5.08844 13.2259 5.28323 13.445C5.58149 13.792 6.06237 13.7737 6.3789 13.4571L6.38499 13.4511Z" fill="black"/>
<path d="M5.52088 2.80852L5.40348 3.64837C5.36736 3.89219 4.99708 4.28954 4.75325 4.3076C4.50941 4.32566 4.05786 3.90123 4.04883 3.63031V0.677296C4.04883 0.397347 4.46425 0 4.76228 0C5.01515 0 5.39445 0.424439 5.42154 0.677296L5.48476 1.37265H8.09472C8.34759 1.37265 8.74495 1.81515 8.76301 2.05898C8.78108 2.30281 8.45596 2.79949 8.20309 2.80852H5.52991H5.52088Z" fill="black"/>
</g>
<defs>
<clipPath id="clip0_130_57890">
<rect width="17.81" height="20.63" fill="white"/>
</clipPath>
</defs>
</svg>
