<svg width="20" height="18" viewBox="0 0 20 18" fill="none" xmlns="http://www.w3.org/2000/svg">
<g clip-path="url(#clip0_130_57897)">
<path d="M16.774 17.6647L2.82775 17.6704C1.8223 17.6704 0.945116 17.1573 0.498036 16.465C-0.0641139 15.5953 -0.196163 14.5673 0.345237 13.6259L7.30232 1.53405C7.83051 0.615366 8.5681 0.0683073 9.4981 0.00982861C10.4281 -0.0486501 11.4939 0.207902 12.0278 1.1379L19.0943 13.4995C19.6017 14.388 19.6225 15.3143 19.1433 16.2216C18.7641 16.9366 17.9304 17.6647 16.774 17.6647ZM16.6834 16.1707C17.0777 16.1707 17.6663 15.9123 17.7926 15.6368C17.919 15.3614 17.953 14.8615 17.9322 14.4918L10.8582 2.10563C10.5828 1.70571 10.0999 1.45105 9.66033 1.4718C9.36228 1.485 8.8737 1.80946 8.68128 2.14524L1.5714 14.4993C1.40729 14.7842 1.59404 15.5237 1.78834 15.7557C1.95812 15.9575 2.46179 16.1688 2.81455 16.1688H16.6834V16.1707Z" fill="black"/>
<path d="M10.5056 10.2921C10.5075 10.5826 9.90381 10.9221 9.65669 10.8787C9.28696 10.8127 8.99268 10.3977 8.99268 9.99589V7.28134C8.99268 6.95122 9.22093 6.47396 9.46617 6.37021C9.7114 6.26645 10.4716 6.47962 10.4754 6.80408L10.5075 10.2921H10.5056Z" fill="black"/>
<path d="M9.75858 13.8902C10.1889 13.8902 10.5377 13.5414 10.5377 13.1111C10.5377 12.6808 10.1889 12.332 9.75858 12.332C9.3283 12.332 8.97949 12.6808 8.97949 13.1111C8.97949 13.5414 9.3283 13.8902 9.75858 13.8902Z" fill="black"/>
</g>
<defs>
<clipPath id="clip0_130_57897">
<rect width="19.4885" height="17.67" fill="white"/>
</clipPath>
</defs>
</svg>
