<svg width="25" height="24" viewBox="0 0 25 24" fill="none" xmlns="http://www.w3.org/2000/svg">
<g clip-path="url(#clip0_130_57839)">
<path fill-rule="evenodd" clip-rule="evenodd" d="M19.11 12C17.97 12 16.9 12.23 16 12.62C19.15 13.53 21.38 15.71 21.44 18.26C23.08 18.05 24.85 17.43 24.85 15.74C24.85 13.71 22.22 12 19.11 12Z" fill="black"/>
<path fill-rule="evenodd" clip-rule="evenodd" d="M18.6963 10.8687H18.7162C20.8462 10.8687 22.5863 9.12867 22.5863 7.00867C22.5863 4.87867 20.8462 3.13867 18.7162 3.13867C18.2962 3.13867 17.8963 3.20867 17.5163 3.32867C18.2063 4.34867 18.6063 5.57867 18.6063 6.90867C18.6163 8.25867 18.1963 9.55867 17.4062 10.6387C17.8162 10.7887 18.2463 10.8687 18.6963 10.8687Z" fill="black"/>
<path d="M11.999 13.5C14.1011 13.5 16.0205 13.9601 17.3965 14.6709C18.8036 15.3979 19.5 16.3018 19.5 17.1338C19.5 17.6018 19.3022 17.9667 18.9189 18.2764C18.5179 18.6003 17.9189 18.8552 17.165 19.0449C15.6596 19.4238 13.7143 19.5 11.999 19.5C11.0037 19.5 9.05347 19.4982 7.3584 19.1494C6.50791 18.9744 5.76823 18.7213 5.25293 18.3701C4.7537 18.0299 4.5 17.6273 4.5 17.1152C4.50008 16.2895 5.19487 15.3902 6.60254 14.666C7.97834 13.9582 9.89719 13.5 11.999 13.5Z" stroke="black"/>
<path d="M12.2461 2.54688C14.6527 2.54703 16.6094 4.50522 16.6094 6.91211V6.91406C16.6138 8.07408 16.1662 9.16536 15.3467 9.99023C14.5281 10.8151 13.4395 11.2708 12.2773 11.2744H12.2461C9.84039 11.2744 7.88294 9.31692 7.88281 6.91211C7.88281 4.50505 9.84045 2.54688 12.2461 2.54688Z" stroke="black"/>
</g>
<defs>
<clipPath id="clip0_130_57839">
<rect width="25" height="24" fill="white"/>
</clipPath>
</defs>
</svg>
