<svg width="27" height="24" viewBox="0 0 27 24" fill="none" xmlns="http://www.w3.org/2000/svg">
<g clip-path="url(#clip0_130_57844)">
<path fill-rule="evenodd" clip-rule="evenodd" d="M21.11 12C19.97 12 18.9 12.23 18 12.62C21.15 13.53 23.38 15.71 23.44 18.26C25.08 18.05 26.85 17.43 26.85 15.74C26.85 13.71 24.22 12 21.11 12Z" fill="black"/>
<path fill-rule="evenodd" clip-rule="evenodd" d="M6.7401 11.8613C7.8801 11.8613 8.9501 12.0913 9.8501 12.4813C6.7001 13.3913 4.4701 15.5713 4.4101 18.1213C2.7701 17.9113 1.0001 17.2913 1.0001 15.6013C1.0001 13.5713 3.6301 11.8613 6.7401 11.8613Z" fill="black"/>
<path fill-rule="evenodd" clip-rule="evenodd" d="M20.6963 10.8687H20.7162C22.8462 10.8687 24.5863 9.12867 24.5863 7.00867C24.5863 4.87867 22.8462 3.13867 20.7162 3.13867C20.2962 3.13867 19.8963 3.20867 19.5163 3.32867C20.2063 4.34867 20.6063 5.57867 20.6063 6.90867C20.6163 8.25867 20.1963 9.55867 19.4062 10.6387C19.8162 10.7887 20.2463 10.8687 20.6963 10.8687Z" fill="black"/>
<path fill-rule="evenodd" clip-rule="evenodd" d="M7.89017 10.73H7.87018C5.74018 10.73 4.00018 8.99 4.00018 6.87C4.00018 4.74 5.74018 3 7.87018 3C8.29018 3 8.69018 3.07 9.07018 3.19C8.38018 4.21 7.98018 5.44 7.98018 6.77C7.97018 8.12 8.39018 9.42 9.18018 10.5C8.77018 10.65 8.34017 10.73 7.89017 10.73Z" fill="black"/>
<path fill-rule="evenodd" clip-rule="evenodd" d="M13.9989 13C9.66343 13 6 14.8846 6 17.1154C6 20 12.02 20 13.9989 20C17.4336 20 22 19.7028 22 17.1337C22 14.8925 18.3355 13 13.9989 13Z" fill="black"/>
<path fill-rule="evenodd" clip-rule="evenodd" d="M14.2458 11.7748H14.2788C15.5738 11.7708 16.7898 11.2618 17.7018 10.3428C18.6148 9.42387 19.1148 8.20487 19.1098 6.91187C19.1098 4.22887 16.9288 2.04688 14.2458 2.04688C11.5638 2.04688 9.38281 4.22887 9.38281 6.91187C9.38281 9.59287 11.5638 11.7748 14.2458 11.7748Z" fill="black"/>
</g>
<defs>
<clipPath id="clip0_130_57844">
<rect width="27" height="24" fill="white"/>
</clipPath>
</defs>
</svg>
