<svg width="24" height="25" viewBox="0 0 24 25" fill="none" xmlns="http://www.w3.org/2000/svg">
<path d="M11.9727 3.03516C17.4955 3.03516 21.9727 7.51231 21.9727 13.0352C21.9727 18.558 17.4955 23.0352 11.9727 23.0352C6.44981 23.0352 1.97266 18.558 1.97266 13.0352C1.97266 7.51231 6.44981 3.03516 11.9727 3.03516ZM16.4004 10.2197C16.1075 9.92682 15.6326 9.92685 15.3398 10.2197L11.124 14.4355L9.28027 12.5928C8.98735 12.2999 8.51257 12.2999 8.21973 12.5928C7.92692 12.8857 7.92683 13.3605 8.21973 13.6533L10.5938 16.0264C10.8866 16.3192 11.3615 16.3192 11.6543 16.0264L16.4004 11.2803C16.6932 10.9874 16.6932 10.5126 16.4004 10.2197Z" fill="black"/>
</svg>
