<svg width="24" height="25" viewBox="0 0 24 25" fill="none" xmlns="http://www.w3.org/2000/svg">
<path d="M11.9727 3.03516C17.4955 3.03516 21.9727 7.51231 21.9727 13.0352C21.9727 18.558 17.4955 23.0352 11.9727 23.0352C6.44981 23.0352 1.97266 18.558 1.97266 13.0352C1.97266 7.51231 6.44981 3.03516 11.9727 3.03516ZM15.5303 9.46973C15.2374 9.17683 14.7626 9.17683 14.4697 9.46973L12 11.9395L9.53027 9.46973C9.23738 9.17683 8.76262 9.17683 8.46973 9.46973C8.17683 9.76262 8.17683 10.2374 8.46973 10.5303L10.9395 13L8.46973 15.4697C8.17683 15.7626 8.17683 16.2374 8.46973 16.5303C8.76263 16.8231 9.23742 16.8231 9.53027 16.5303L12 14.0605L14.4697 16.5303C14.7626 16.8231 15.2374 16.8231 15.5303 16.5303C15.8231 16.2374 15.8231 15.7626 15.5303 15.4697L13.0605 13L15.5303 10.5303C15.8231 10.2374 15.8231 9.76263 15.5303 9.46973Z" fill="black"/>
</svg>
