<svg width="16" height="17" viewBox="0 0 16 17" fill="none" xmlns="http://www.w3.org/2000/svg">
<g clip-path="url(#clip0_130_57877)">
<path d="M4.4283 1.23684C2.78681 1.23684 1.35147 2.34389 1.26749 4.06172C1.15296 6.6652 1.17587 9.29157 1.24458 11.9027C1.29039 13.6816 2.71046 14.8803 4.35195 14.8726H7.65783C7.91741 14.8726 8.28388 15.1857 8.30678 15.4071C8.34496 15.7888 8.06247 16.1324 7.65783 16.1247L4.20689 16.0942C1.90881 16.0713 0.0611846 14.2695 0.045915 11.9179L0.000106107 4.8023C-0.0151635 2.16829 1.61869 0.0229045 4.22216 0.0152696L11.0477 0C13.5137 0 15.3766 1.82472 15.4301 4.32894C15.4835 6.83316 15.5141 9.38319 15.4072 11.9179C15.2545 15.7277 11.2156 16.5981 10.5285 15.9339C10.3911 15.7964 10.3529 15.3307 10.4369 15.1551C10.5209 14.9795 10.9255 14.8574 11.1775 14.8497C12.8877 14.8344 14.1856 13.5823 14.2238 11.8187C14.2772 9.2534 14.3001 6.71864 14.2085 4.15334C14.1474 2.49659 12.7961 1.24448 11.208 1.24448L4.4283 1.22921V1.23684Z" fill="black"/>
<path d="M11.0475 11.0108C9.94047 11.0872 10.1542 12.3011 8.68836 12.1866C8.07757 12.1408 7.55077 11.7209 7.22247 11.0719L4.35942 11.0414C4.15328 11.0414 3.80971 10.6749 3.78681 10.484C3.7639 10.2931 4.08456 9.85033 4.29834 9.84269L7.23774 9.78925C7.58895 9.01813 8.10048 8.72801 8.79525 8.66693C9.3984 8.62112 10.0932 9.13265 10.3604 9.59838C10.5665 9.96485 11.5591 9.65946 11.6507 10.3313C11.6888 10.6291 11.3605 10.9879 11.0475 11.0108ZM9.35259 10.4153C9.35259 10.1252 9.12354 9.89613 8.83342 9.89613C8.5433 9.89613 8.31425 10.1252 8.31425 10.4153C8.31425 10.7054 8.5433 10.9345 8.83342 10.9345C9.12354 10.9345 9.35259 10.7054 9.35259 10.4153Z" fill="black"/>
<path d="M8.27615 6.32982C7.85623 6.9177 7.44395 7.43687 6.77209 7.46741C6.10023 7.49795 5.42836 7.0933 5.12297 6.55123C4.88629 6.13895 3.8785 6.45961 3.80978 5.78775C3.78688 5.52817 4.0999 5.13879 4.33658 5.10825L5.05426 5.009C5.35965 4.3524 5.9399 3.90958 6.60412 3.93249C7.26835 3.95539 7.8715 4.29133 8.22271 5.06244L11.0781 5.08535C11.2843 5.08535 11.6355 5.45182 11.6431 5.65796C11.6584 5.887 11.2995 6.30692 11.0476 6.30692L8.27615 6.32982ZM7.13093 5.69613C7.13093 5.40601 6.90188 5.17696 6.61176 5.17696C6.32164 5.17696 6.09259 5.40601 6.09259 5.69613C6.09259 5.98625 6.32164 6.2153 6.61176 6.2153C6.90188 6.2153 7.13093 5.98625 7.13093 5.69613Z" fill="black"/>
</g>
<defs>
<clipPath id="clip0_130_57877">
<rect width="15.4758" height="16.14" fill="white"/>
</clipPath>
</defs>
</svg>
