<svg width="30" height="30" viewBox="0 0 30 30" fill="none" xmlns="http://www.w3.org/2000/svg">
<path fill-rule="evenodd" clip-rule="evenodd" d="M19.9498 10.0509C20.3403 10.4414 20.2725 11.1423 19.7984 11.6165L11.6159 19.799C11.1417 20.2732 10.4408 20.3409 10.0503 19.9504C9.65978 19.5598 9.72744 18.859 10.2017 18.3847L18.3842 10.2022C18.8583 9.72811 19.5593 9.66035 19.9498 10.0509Z" fill="black"/>
<path fill-rule="evenodd" clip-rule="evenodd" d="M10.0502 10.0509C10.4407 9.66035 11.1414 9.72779 11.6151 10.2015L19.7991 18.3855C20.2728 18.8592 20.3402 19.5598 19.9497 19.9504C19.5592 20.3409 18.8586 20.2734 18.3848 19.7997L10.2009 11.6157C9.72715 11.142 9.65971 10.4414 10.0502 10.0509Z" fill="black"/>
<circle cx="15" cy="15" r="14" stroke="black" stroke-width="2"/>
</svg>
