<svg width="30" height="30" viewBox="0 0 30 30" fill="none" xmlns="http://www.w3.org/2000/svg">
<path d="M15 0C23.2843 0 30 6.71573 30 15C30 23.2843 23.2843 30 15 30C6.71573 30 0 23.2843 0 15C0 6.71573 6.71573 0 15 0ZM15 8C14.4478 8 14.0001 8.54344 14 9.21387V14H9.21289C8.54302 14.0001 8 14.4478 8 15C8 15.5522 8.54302 15.9999 9.21289 16H14V20.7861C14.0001 21.4567 14.4478 22 15 22C15.5522 22 15.9999 21.4567 16 20.7861V16H20.7871C21.457 15.9999 22 15.5522 22 15C22 14.4478 21.457 14.0001 20.7871 14H16V9.21387C15.9999 8.54344 15.5522 8 15 8Z" fill="black"/>
</svg>
