<svg width="30" height="30" viewBox="0 0 30 30" fill="none" xmlns="http://www.w3.org/2000/svg">
<path d="M14.9453 2.5C17.3728 2.5 20.2417 5.29395 22.0654 6.7627C26.1966 10.5939 26.9629 10.1029 26.9629 17.1416C26.9628 27.5 24.5141 27.5 14.9805 27.5C5.44691 27.5 2.9981 27.5 2.99805 17.1416C2.99805 10.103 3.76547 10.5937 7.89648 6.7627C9.70393 5.30774 12.5166 2.50016 14.9453 2.5ZM11.3477 19.4189C10.9334 19.4189 10.5977 19.7547 10.5977 20.1689C10.5979 20.5829 10.9336 20.9189 11.3477 20.9189H18.6162C19.0303 20.9189 19.3659 20.5829 19.3662 20.1689C19.3662 19.7547 19.0304 19.4189 18.6162 19.4189H11.3477Z" fill="black"/>
</svg>
