<svg width="24" height="24" viewBox="0 0 24 24" fill="none" xmlns="http://www.w3.org/2000/svg">
<path fill-rule="evenodd" clip-rule="evenodd" d="M16.3005 2C19.6855 2 21.9605 4.371 21.9605 7.899V16.051C21.9605 19.579 19.6855 21.95 16.3005 21.95H7.65049C4.27049 21.95 2.00049 19.579 2.00049 16.051V7.899C2.00049 4.371 4.27049 2 7.65049 2H16.3005ZM16.3005 3.5H7.65049C5.12949 3.5 3.50049 5.227 3.50049 7.899V16.051C3.50049 18.724 5.12949 20.45 7.65049 20.45H16.3005C18.8275 20.45 20.4605 18.724 20.4605 16.051V7.899C20.4605 5.227 18.8275 3.5 16.3005 3.5ZM16.9395 12.0994C16.9458 12.1045 16.952 12.1097 16.9651 12.1218L16.9844 12.1403C16.9883 12.1441 16.9926 12.1483 16.9973 12.1529L17.0531 12.2083C17.2335 12.3889 17.732 12.898 19.2175 14.4234C19.5065 14.7194 19.5015 15.1944 19.2045 15.4834C18.9085 15.7744 18.4325 15.7654 18.1435 15.4694C18.1435 15.4694 16.0945 13.3664 15.9485 13.2244C15.7935 13.0974 15.5445 13.0234 15.2995 13.0474C15.0505 13.0724 14.8265 13.1914 14.6675 13.3844C12.3435 16.2034 12.3155 16.2304 12.2775 16.2674C11.4195 17.1094 10.0345 17.0954 9.19149 16.2354C9.19149 16.2354 8.26149 15.2914 8.24549 15.2724C8.01449 15.0584 7.60249 15.0724 7.35549 15.3334L5.82549 16.9464C5.67749 17.1024 5.47949 17.1804 5.28149 17.1804C5.09549 17.1804 4.91049 17.1124 4.76549 16.9744C4.46449 16.6904 4.45249 16.2144 4.73749 15.9154L6.26549 14.3024C7.07449 13.4434 8.43949 13.4014 9.30249 14.2114L10.2605 15.1834C10.5275 15.4534 10.9615 15.4584 11.2295 15.1944C11.3305 15.0754 13.5085 12.4304 13.5085 12.4304C13.9225 11.9284 14.5065 11.6184 15.1555 11.5544C15.8055 11.4974 16.4365 11.6864 16.9395 12.0994ZM8.55869 6.6289C9.94069 6.6299 11.0637 7.7539 11.0637 9.1329C11.0637 10.5139 9.93969 11.6379 8.55869 11.6379C7.17769 11.6379 6.05469 10.5139 6.05469 9.1329C6.05469 7.7519 7.17769 6.6289 8.55869 6.6289ZM8.55769 8.1289C8.00469 8.1289 7.55469 8.5789 7.55469 9.1329C7.55469 9.6869 8.00469 10.1379 8.55869 10.1379C9.11269 10.1379 9.56369 9.6869 9.56369 9.1329C9.56369 8.5799 9.11269 8.1299 8.55769 8.1289Z" fill="black"/>
</svg>
