<svg width="17" height="21" viewBox="0 0 17 21" fill="none" xmlns="http://www.w3.org/2000/svg">
<g clip-path="url(#clip0_130_57956)">
<path d="M12.2579 20.7004L4.39902 20.6964C1.98105 20.6964 0.0277015 18.8577 0.0217702 16.3508L2.23631e-05 7.66746C-0.00590887 5.7319 1.16848 4.10081 2.94191 3.42465C3.29977 2.56067 3.98977 1.9458 4.99808 1.91614C5.75134 0.678493 6.99888 0.109094 8.24444 0.0102405C9.79447 -0.112338 10.6446 0.89004 11.7617 1.7046L13.8119 3.20124C15.3678 4.33806 16.6885 5.46302 16.6806 7.69514L16.651 16.3587C16.6431 18.7688 14.7035 20.6984 12.2579 20.6964V20.7004ZM11.5758 4.75918C11.8091 4.75918 12.2638 4.41912 12.2797 4.19769C12.3449 3.28824 10.9214 3.7746 10.3975 2.90864C9.87355 2.04268 9.1875 1.5919 8.28793 1.61563C7.46942 1.63738 6.7557 2.07036 6.3069 2.85921C5.73355 3.86752 4.30807 3.24276 4.40297 4.21944C4.42472 4.45076 4.89724 4.75918 5.1602 4.75918H11.5738H11.5758ZM15.0733 16.2737L15.0911 7.85924C15.093 6.78371 14.5988 5.73783 13.7269 5.15064C13.1772 5.79517 12.5288 6.34678 11.7557 6.3448L4.77466 6.34084C4.08664 6.34084 3.42828 5.66666 2.98146 5.1289C2.18469 5.65875 1.58366 6.61763 1.58564 7.66153L1.60739 16.3607C1.61134 17.9305 2.92214 19.1108 4.40297 19.1088L12.3133 19.1029C13.8218 19.1029 15.0693 17.9226 15.0733 16.2737Z" fill="black"/>
<path d="M9.31003 11.5299C9.01939 11.5299 9.37725 13.159 8.47372 13.2203C7.84501 13.2638 7.51286 12.8288 7.53066 12.2456L7.54647 11.7157C7.55833 11.3618 6.58364 11.7454 6.0518 11.2729C5.85607 11.0989 5.80467 10.5057 5.9569 10.2942C6.39581 9.68131 7.4753 10.0154 7.4832 9.85924L7.52275 9.18506C7.54449 8.81535 7.88851 8.2756 8.25427 8.24199C8.8118 8.19059 9.14988 8.68091 9.14988 9.21867V9.75446C9.14988 10.0807 10.2175 9.68328 10.6722 10.229C10.8264 10.4128 10.8541 11.0554 10.688 11.2254C10.522 11.3954 10.0692 11.5319 9.82604 11.5338H9.30805L9.31003 11.5299Z" fill="black"/>
<path d="M11.7754 16.6755L4.99407 16.6933C4.73111 16.6933 4.28232 16.2721 4.22696 16.0151C4.16172 15.7027 4.6204 15.0958 4.96639 15.0958L11.5777 15.0898C11.8585 15.0898 12.3389 15.4635 12.4496 15.7225C12.5603 15.9815 12.1491 16.6735 11.7735 16.6755H11.7754Z" fill="black"/>
</g>
<defs>
<clipPath id="clip0_130_57956">
<rect width="16.6806" height="20.7" fill="white"/>
</clipPath>
</defs>
</svg>
