<svg width="20" height="20" viewBox="0 0 20 20" fill="none" xmlns="http://www.w3.org/2000/svg">
<g clip-path="url(#clip0_130_57923)">
<path d="M17.1501 13.8002C19.0801 10.0802 18.1001 5.91016 15.1101 3.40016C12.1201 0.890158 7.75015 0.880158 4.69015 3.29016C1.63015 5.70016 0.550148 10.0202 2.47015 13.7002C2.60015 13.9602 2.33015 14.6902 2.06015 14.7702C0.330148 15.2502 -2.17985 6.97016 3.60015 2.22016C7.21015 -0.739842 12.4302 -0.729842 16.0401 2.22016C19.6502 5.18016 20.7101 10.2202 18.5101 14.4902L17.6001 14.8002C17.3801 14.8802 17.0401 14.0202 17.1501 13.8002Z" fill="black"/>
<path d="M13.87 8.15031C13.87 10.4003 12.04 12.2303 9.78996 12.2303C7.53996 12.2303 5.70996 10.4003 5.70996 8.15031C5.70996 5.90031 7.53996 4.07031 9.78996 4.07031C12.04 4.07031 13.87 5.90031 13.87 8.15031ZM12.36 8.14031C12.36 6.72031 11.21 5.58031 9.79996 5.58031C8.38996 5.58031 7.23996 6.73031 7.23996 8.14031C7.23996 9.55031 8.38996 10.7003 9.79996 10.7003C11.21 10.7003 12.36 9.55031 12.36 8.14031Z" fill="black"/>
<path d="M15.7801 17.6098C12.2001 20.4098 7.2701 20.2998 3.8501 17.6098C3.9401 15.9098 4.8401 14.5698 6.3301 13.8798C8.5001 12.8698 11.1501 12.8598 13.3201 13.8998C14.7301 14.5798 15.6401 15.8198 15.7901 17.6298L15.7801 17.6098ZM14.1701 16.8698C12.7201 13.7798 6.7401 13.8898 5.4101 16.9098C8.1401 18.5298 11.5201 18.6098 14.1701 16.8698Z" fill="black"/>
</g>
<defs>
<clipPath id="clip0_130_57923">
<rect width="19.65" height="19.67" fill="white"/>
</clipPath>
</defs>
</svg>
