<svg width="13" height="16" viewBox="0 0 13 16" fill="none" xmlns="http://www.w3.org/2000/svg">
<g clip-path="url(#clip0_130_57903)">
<path d="M9.33002 12.6196C9.19002 14.1396 7.97002 15.2196 6.57002 15.2496C5.09002 15.2796 3.82002 14.1896 3.66002 12.6196C3.09002 12.5996 2.40002 12.6596 1.88002 12.5196C0.520019 12.1596 -0.0999808 10.5996 0.500019 9.40955C0.930019 8.54955 1.20002 7.69955 1.14002 6.72955C0.980019 3.77955 3.08002 1.35955 5.94002 0.989551C5.94002 0.599551 5.96002 0.229551 6.10002 0.109551C6.24002 -0.0104489 6.65002 -0.0204489 6.81002 0.0495511C7.00002 0.129551 7.09002 0.559551 7.06002 0.989551C9.92002 1.36955 12.02 3.77955 11.86 6.72955C11.75 8.89955 13.23 9.71955 12.56 11.2296C11.95 12.5896 10.93 12.6696 9.33002 12.6196ZM10.79 11.3996C11.52 11.3996 11.67 10.2996 11.45 9.89955C10.88 8.83955 10.63 7.78955 10.68 6.59955C10.79 4.11955 8.82002 2.13955 6.43002 2.17955C4.04002 2.21955 2.21002 4.16955 2.32002 6.60955C2.37002 7.78955 2.12002 8.85955 1.56002 9.89955C1.29002 10.4096 1.55002 11.4296 2.27002 11.4196H10.79V11.3996ZM8.13002 12.6096H4.84002C4.97002 13.5096 5.72002 14.0996 6.56002 14.0696C7.33002 14.0396 8.06002 13.4596 8.12002 12.6096H8.13002Z" fill="black"/>
<path d="M2.51985 1.71963C1.15985 2.87963 1.10985 4.06963 0.449851 3.88963C-0.670149 3.58963 0.52985 1.96963 1.77985 0.79963C2.01985 0.56963 2.49985 0.57963 2.66985 0.79963C2.91985 1.11963 2.82985 1.46963 2.52985 1.71963H2.51985Z" fill="black"/>
<path d="M12.66 3.84977C11.93 4.19977 11.88 2.92977 10.48 1.71977C10.19 1.46977 10.09 1.12977 10.34 0.799766C10.51 0.579766 10.99 0.579766 11.23 0.799766C12.37 1.85977 13.6 3.39977 12.66 3.84977Z" fill="black"/>
</g>
<defs>
<clipPath id="clip0_130_57903">
<rect width="12.99" height="15.25" fill="white"/>
</clipPath>
</defs>
</svg>
