<svg width="14" height="14" viewBox="0 0 14 14" fill="none" xmlns="http://www.w3.org/2000/svg">
<path fill-rule="evenodd" clip-rule="evenodd" d="M4.60003 0.109782C5.70849 -0.110664 6.85766 0.00245716 7.90179 0.434978C8.94583 0.867496 9.83839 1.59984 10.4662 2.53947C11.0941 3.47914 11.4291 4.58415 11.4291 5.71427C11.4278 6.89125 11.0625 8.02978 10.3979 8.98185L13.7094 12.2934C13.8491 12.4331 13.9443 12.6113 13.9828 12.8051C14.0214 12.999 14.0019 13.2005 13.9262 13.3832C13.8506 13.5657 13.7222 13.7216 13.558 13.8315C13.3937 13.9413 13.2 14.0003 13.0024 14.0004C12.8711 14.0006 12.7409 13.9745 12.6196 13.9242C12.4983 13.874 12.388 13.8004 12.2953 13.7074L8.98382 10.3959C8.03124 11.0615 6.89219 11.4279 5.71429 11.4291C4.58411 11.429 3.47914 11.0932 2.53948 10.4653C1.59991 9.8373 0.867396 8.9449 0.43499 7.9008C0.00259471 6.85666 -0.110742 5.70745 0.109795 4.59904C0.330362 3.49066 0.875102 2.47234 1.67425 1.67326C2.47341 0.874247 3.49166 0.330214 4.60003 0.109782ZM5.71429 2.00041C4.97968 2.0005 4.26157 2.21819 3.65081 2.62638C3.04005 3.03458 2.5637 3.61466 2.28265 4.29338C2.00169 4.97192 1.92846 5.71859 2.07171 6.43888C2.21508 7.15937 2.56883 7.82181 3.08831 8.34123C3.60778 8.86061 4.27018 9.21455 4.99065 9.35783C5.711 9.50097 6.45764 9.42699 7.13616 9.14592C7.81484 8.86477 8.39504 8.38856 8.80315 7.77775C9.21119 7.16698 9.42913 6.44881 9.42913 5.71427C9.42809 4.72963 9.03644 3.78558 8.34026 3.08927C7.64383 2.39293 6.69913 2.00132 5.71429 2.00041Z" fill="black"/>
</svg>
