<svg width="20" height="20" viewBox="0 0 20 20" fill="none" xmlns="http://www.w3.org/2000/svg">
<g clip-path="url(#clip0_130_57807)">
<path d="M18.1591 15.365C18.5484 13.1863 17.9576 11.723 19.025 11.4483C20.0924 11.1735 20.1795 13.3223 19.7983 15.5445C19.3517 18.1394 17.1788 19.9618 14.5811 19.97L5.6417 19.9972C2.73905 20.0053 0.187653 17.9109 0.0787358 14.8374C-0.0329048 11.7039 -0.0111213 8.63036 0.0460605 5.44527C0.0896275 2.89665 1.85409 0.600988 4.39187 0.201151C6.38779 -0.111647 8.6206 -0.157886 8.81665 0.791386C8.87384 1.0661 8.36465 1.6509 8.07057 1.65634L5.39392 1.7053C3.47697 1.74066 1.76696 3.20129 1.69616 5.25759C1.58452 8.44812 1.58724 11.5979 1.69616 14.8102C1.76151 16.774 3.48786 18.3624 5.3803 18.3624H14.5512C16.2612 18.3624 17.835 17.1793 18.1591 15.365Z" fill="black"/>
<path d="M18.227 2.93941L12.0187 9.11648C11.8008 9.33407 11.1119 9.40207 10.9159 9.2144C10.6708 8.98048 10.6191 8.25424 10.9104 7.96321L17.1269 1.75078L14.2488 1.6719C13.9547 1.66374 13.4673 1.28022 13.3829 1.0191C13.2984 0.757983 13.7559 0.0480691 14.0636 0.050789L19.8716 0.118789L19.986 5.73554C19.9914 6.04018 19.5258 6.58962 19.2508 6.62226C18.8995 6.66034 18.3577 6.15442 18.3413 5.7709L18.2242 2.93669L18.227 2.93941Z" fill="black"/>
</g>
<defs>
<clipPath id="clip0_130_57807">
<rect width="20" height="20" fill="white"/>
</clipPath>
</defs>
</svg>
