<svg width="24" height="25" viewBox="0 0 24 25" fill="none" xmlns="http://www.w3.org/2000/svg">
<path fill-rule="evenodd" clip-rule="evenodd" d="M1.97119 13.0352C1.97119 7.51231 6.44834 3.03516 11.9712 3.03516C17.494 3.03516 21.9712 7.51231 21.9712 13.0352C21.9712 18.558 17.494 23.0352 11.9712 23.0352C6.44834 23.0352 1.97119 18.558 1.97119 13.0352ZM11.9712 4.53516C7.27677 4.53516 3.47119 8.34074 3.47119 13.0352C3.47119 17.7296 7.27677 21.5352 11.9712 21.5352C16.6656 21.5352 20.4712 17.7296 20.4712 13.0352C20.4712 8.34074 16.6656 4.53516 11.9712 4.53516Z" fill="black"/>
<path fill-rule="evenodd" clip-rule="evenodd" d="M16.4003 10.2197C16.6932 10.5126 16.6932 10.9874 16.4003 11.2803L11.6543 16.0263C11.3615 16.3192 10.8867 16.3192 10.5938 16.0264L8.21979 13.6534C7.92683 13.3606 7.92673 12.8857 8.21956 12.5928C8.5124 12.2998 8.98727 12.2997 9.28022 12.5926L11.1239 14.4355L15.3397 10.2197C15.6325 9.92677 16.1074 9.92677 16.4003 10.2197Z" fill="black"/>
</svg>
