<svg width="22" height="19" viewBox="0 0 22 19" fill="none" xmlns="http://www.w3.org/2000/svg">
<g clip-path="url(#clip0_130_57834)">
<path d="M15.5399 6.36053C15.4099 3.61053 13.4399 1.73053 10.9899 1.69053C8.53994 1.65053 6.40994 3.58053 6.28994 6.27053C6.26994 6.71053 5.84994 7.21053 5.40994 7.20053C3.50994 7.16053 2.12994 8.32053 1.74994 10.1005C1.36994 11.8805 2.45994 13.7805 4.06994 14.5005C4.32994 14.6205 4.50994 15.3405 4.35994 15.5305C3.95994 16.0405 3.91994 15.9905 3.55994 16.0905C1.06994 15.1105 -0.310061 12.7105 0.0599386 10.0605C0.399939 7.62053 2.24994 5.85053 4.64994 5.53053C5.17994 2.24053 7.72994 0.0405341 10.8199 0.000534108C13.9099 -0.0394659 16.6199 2.17053 17.1699 5.53053C19.5799 5.83053 21.4199 7.63053 21.7599 10.0605C22.1199 12.6605 20.8099 14.9905 18.3899 16.0605C18.0699 15.9805 17.6999 15.8105 17.5399 15.6405C17.3499 15.4305 17.4299 14.6405 17.7399 14.5105C19.7999 13.5905 20.8099 11.1105 19.6899 9.02053C18.2899 6.41053 15.6199 7.86053 15.5499 6.36053H15.5399Z" fill="black"/>
<path d="M11.6499 17.2404C11.6499 17.8104 11.3499 18.2904 10.8999 18.3104C10.2999 18.3504 9.95992 17.9204 9.95992 17.3304V11.7204L8.25992 13.3604C8.04992 13.5604 7.38992 13.5704 7.10992 13.3604C6.82992 13.1504 6.78992 12.4604 7.08992 12.1704L10.0499 9.18042C10.2099 9.02042 10.5399 8.76042 10.7299 8.72042C10.9599 8.68042 11.3799 8.98042 11.5599 9.17042L14.5299 12.1704C14.7499 12.4004 14.7999 13.0304 14.6099 13.2504C14.3499 13.5604 13.6099 13.6204 13.3499 13.3704L11.6499 11.7204V17.2404Z" fill="black"/>
</g>
<defs>
<clipPath id="clip0_130_57834">
<rect width="21.82" height="18.31" fill="white"/>
</clipPath>
</defs>
</svg>
