<svg width="31" height="30" viewBox="0 0 31 30" fill="none" xmlns="http://www.w3.org/2000/svg">
<path d="M21.7971 29.9992H9.17541C5.06973 29.9937 1.66225 26.8616 1.52207 22.5352C1.3765 17.9491 1.36302 13.3958 1.53285 8.80976C1.6946 4.49152 5.18834 1.41683 9.2509 1.42776L22.1556 1.46603C26.1238 1.47696 29.3615 4.7621 29.5205 8.84255C29.6985 13.4341 29.6823 17.919 29.5367 22.4914C29.4019 26.7906 26.0187 30.0019 21.7944 29.9992H21.7971ZM22.2958 27.7526C25.1641 27.7362 27.3639 25.1972 27.3639 22.4231L27.3585 8.93821C27.3585 5.86352 24.7948 3.64701 21.8915 3.64701L9.09454 3.65247C6.13726 3.65247 3.73531 5.97557 3.66252 9.0694C3.55739 13.568 3.54391 18.0229 3.6814 22.4914C3.78384 25.7711 6.4311 27.8482 9.45038 27.8318L22.2931 27.7553L22.2958 27.7526Z" fill="black"/>
<path d="M18.553 22.0449C18.4587 22.3374 17.9546 22.8293 17.6607 22.8758C17.3184 22.9305 16.5851 22.4658 16.4746 22.1297L13.5901 13.3456L12.2072 16.7975L8.92099 16.833C8.51931 16.8385 7.8885 16.2891 7.8238 15.9202C7.75101 15.5157 8.19582 14.6684 8.60019 14.6602L10.7919 14.6138L12.4606 9.49201C12.5711 9.15585 13.0914 8.66116 13.4095 8.58464C13.7276 8.50811 14.4447 8.96727 14.5498 9.28157L17.4693 18.0984L18.7337 14.7176C19.8821 14.611 21.4753 14.5755 22.6452 14.7285C23.028 14.7777 23.3462 15.819 23.1709 16.1415C22.9957 16.464 22.3271 16.8221 21.9228 16.833L20.2352 16.874L18.553 22.0449Z" fill="black"/>
</svg>
