<svg width="32" height="30" viewBox="0 0 32 30" fill="none" xmlns="http://www.w3.org/2000/svg">
<g clip-path="url(#clip0_130_58035)">
<path fill-rule="evenodd" clip-rule="evenodd" d="M22.4573 1.46976C26.4802 1.48088 29.7629 4.76637 29.9241 8.84671C30.1045 13.438 30.0883 17.9229 29.9407 22.4951C29.804 26.7941 26.3736 30.0055 22.0911 30.003H9.29813C5.13575 29.9975 1.68059 26.8654 1.53837 22.5391C1.39078 17.9531 1.37791 13.3995 1.55009 8.81351C1.71412 4.49535 5.25565 1.42078 9.37431 1.43167L22.4573 1.46976ZM13.5921 8.58792C13.2696 8.66445 12.7412 9.15898 12.6292 9.49515L10.9378 14.6162L8.7161 14.6631C8.30617 14.6713 7.85528 15.5184 7.92899 15.9229C7.99459 16.2918 8.63407 16.8414 9.0413 16.836L12.3724 16.8008L13.7747 13.3487L16.6995 22.1328C16.812 22.469 17.5547 22.9335 17.9016 22.8789C18.1995 22.8325 18.7101 22.3403 18.8059 22.0479L20.512 16.877L22.2229 16.836C22.6328 16.8249 23.3097 16.4669 23.4876 16.1446C23.6652 15.8221 23.3433 14.7811 22.9554 14.7315C21.7692 14.5784 20.1538 14.6141 18.9895 14.7207L17.7073 18.1016L14.7474 9.28421C14.6404 8.97001 13.9146 8.51178 13.5921 8.58792Z" fill="black"/>
</g>
<defs>
<clipPath id="clip0_130_58035">
<rect width="31.4286" height="30" fill="white"/>
</clipPath>
</defs>
</svg>
