<svg width="14" height="18" viewBox="0 0 14 18" fill="none" xmlns="http://www.w3.org/2000/svg">
<path d="M7.24062 15.3C7.41562 15.285 7.5651 15.2137 7.68906 15.0863C7.81302 14.9588 7.875 14.805 7.875 14.625C7.875 14.415 7.80937 14.2462 7.67812 14.1187C7.54687 13.9913 7.37917 13.935 7.175 13.95C6.57708 13.995 5.94271 13.8263 5.27187 13.4437C4.60104 13.0612 4.17812 12.3675 4.00312 11.3625C3.97396 11.1975 3.8974 11.0625 3.77344 10.9575C3.64948 10.8525 3.50729 10.8 3.34687 10.8C3.14271 10.8 2.975 10.8787 2.84375 11.0362C2.7125 11.1937 2.66875 11.3775 2.7125 11.5875C2.96042 12.9525 3.54375 13.9275 4.4625 14.5125C5.38125 15.0975 6.30729 15.36 7.24062 15.3ZM7 18C5.00208 18 3.33594 17.295 2.00156 15.885C0.667187 14.475 0 12.72 0 10.62C0 9.12 0.579687 7.48875 1.73906 5.72625C2.89844 3.96375 4.65208 2.055 7 0C9.34792 2.055 11.1016 3.96375 12.2609 5.72625C13.4203 7.48875 14 9.12 14 10.62C14 12.72 13.3328 14.475 11.9984 15.885C10.6641 17.295 8.99792 18 7 18ZM7 16.2C8.51667 16.2 9.77083 15.6712 10.7625 14.6137C11.7542 13.5562 12.25 12.225 12.25 10.62C12.25 9.525 11.8089 8.2875 10.9266 6.9075C10.0443 5.5275 8.73542 4.02 7 2.385C5.26458 4.02 3.95573 5.5275 3.07344 6.9075C2.19115 8.2875 1.75 9.525 1.75 10.62C1.75 12.225 2.24583 13.5562 3.2375 14.6137C4.22917 15.6712 5.48333 16.2 7 16.2Z" fill="black"/>
</svg>
