<svg width="22" height="22" viewBox="0 0 22 22" fill="none" xmlns="http://www.w3.org/2000/svg">
<g clip-path="url(#clip0_130_57796)">
<path d="M15.31 21.24L5.84 21.26C2.63 21.27 0 18.82 0 15.52V5.73C0 2.45 2.63 0 5.83 0H15.18C18.39 0 21.01 2.45 21.01 5.73V15.53C21.01 18.69 18.52 21.24 15.3 21.24H15.31ZM11.33 16.37L11.31 19.64H15.19C17.57 19.62 19.42 17.78 19.42 15.33L19.4 5.75C19.4 3.38 17.46 1.65 15.19 1.65H5.83C3.56 1.65 1.62 3.39 1.62 5.75V15.53C1.62 17.91 3.56 19.63 5.82 19.63H9.7V16.32C9.7 15.9 10.19 15.46 10.62 15.49C10.91 15.51 11.35 16.04 11.34 16.38L11.33 16.37Z" fill="black"/>
<path d="M13.4 11.9498C11.65 10.3798 9.34 10.4298 7.7 11.8998C7.47 12.1098 6.76 11.9698 6.62 11.7198L4 7.32976C9.56 1.60976 17.7 6.31976 16.77 7.84976L14.48 11.5898C14.33 11.8398 13.7 12.2098 13.41 11.9498H13.4ZM11.49 9.18976L13.54 9.96976L14.95 7.65976C12.23 5.70976 8.78 5.70976 6.06 7.65976L7.47 9.96976L9.58 9.16976L9.69 8.35976C9.76 7.84976 10.07 7.43976 10.63 7.45976C11.48 7.49976 11.14 8.60976 11.49 9.18976Z" fill="black"/>
</g>
<defs>
<clipPath id="clip0_130_57796">
<rect width="21.01" height="21.26" fill="white"/>
</clipPath>
</defs>
</svg>
